<svg width="151" height="25" viewBox="0 0 151 25" fill="none" xmlns="http://www.w3.org/2000/svg">
<g clip-path="url(#clip0_183_707)">
<path d="M19.556 19.5H21V21.5H3V19.5H4.444L5.334 15.5H18.667L19.556 19.5ZM17.333 9.5L18.223 13.5H5.777L6.666 9.5H17.333ZM16.889 7.5H7.11L7.825 4.283C7.8744 4.06077 7.99815 3.86205 8.17579 3.71968C8.35344 3.57731 8.57434 3.49981 8.802 3.5H15.198C15.4255 3.50004 15.6462 3.57764 15.8236 3.71999C16.001 3.86234 16.1246 4.06094 16.174 4.283L16.889 7.5Z" fill="#23C37A"/>
</g>
<path d="M36.294 5.98C37.9367 5.98 39.2273 6.376 40.166 7.168C41.1047 7.96 41.574 9.02333 41.574 10.358C41.574 11.7807 41.1047 12.8733 40.166 13.636C39.2273 14.384 37.944 14.758 36.316 14.758L36.008 14.934H32.884V20.5H29.892V5.98H36.294ZM35.942 12.624C36.7927 12.624 37.4233 12.4553 37.834 12.118C38.2593 11.766 38.472 11.2307 38.472 10.512C38.472 9.79333 38.2593 9.26533 37.834 8.928C37.4233 8.576 36.7927 8.4 35.942 8.4H32.884V12.624H35.942ZM37.724 13.262L42.432 20.5H39.022L35.128 14.142L37.724 13.262ZM50.8071 13.482C50.8071 12.8513 50.6238 12.36 50.2571 12.008C49.9051 11.656 49.4358 11.48 48.8491 11.48C48.3065 11.48 47.8298 11.6193 47.4191 11.898C47.0085 12.1767 46.7078 12.6387 46.5171 13.284L43.9431 12.492C44.1925 11.524 44.7351 10.7467 45.5711 10.16C46.4218 9.57333 47.5585 9.28 48.9811 9.28C49.9491 9.28 50.7925 9.434 51.5111 9.742C52.2298 10.0353 52.7871 10.4827 53.1831 11.084C53.5938 11.6853 53.7991 12.4407 53.7991 13.35V17.816C53.7991 18.3733 54.0631 18.652 54.5911 18.652C54.8405 18.652 55.0751 18.6153 55.2951 18.542L55.1191 20.412C54.7378 20.6027 54.2611 20.698 53.6891 20.698C53.1758 20.698 52.7138 20.61 52.3031 20.434C51.8925 20.258 51.5698 19.994 51.3351 19.642C51.1005 19.2753 50.9831 18.8207 50.9831 18.278V18.19L51.5111 18.102C51.4231 18.6593 51.1811 19.136 50.7851 19.532C50.3891 19.9133 49.9051 20.2067 49.3331 20.412C48.7758 20.6173 48.1965 20.72 47.5951 20.72C46.8471 20.72 46.2018 20.61 45.6591 20.39C45.1165 20.1553 44.6985 19.818 44.4051 19.378C44.1118 18.938 43.9651 18.3953 43.9651 17.75C43.9651 16.9287 44.2291 16.2613 44.7571 15.748C45.2851 15.22 46.0405 14.8607 47.0231 14.67L51.1591 13.834L51.1371 15.704L48.4971 16.232C47.9985 16.3347 47.6171 16.474 47.3531 16.65C47.1038 16.8113 46.9791 17.0827 46.9791 17.464C46.9791 17.8307 47.1111 18.1093 47.3751 18.3C47.6538 18.4907 47.9838 18.586 48.3651 18.586C48.6731 18.586 48.9738 18.5493 49.2671 18.476C49.5605 18.4027 49.8245 18.2853 50.0591 18.124C50.2938 17.9627 50.4771 17.7427 50.6091 17.464C50.7411 17.1853 50.8071 16.848 50.8071 16.452V13.482ZM57.1699 20.5V9.5H59.8759L59.9859 11.48C60.3526 10.7467 60.8513 10.1967 61.4819 9.83C62.1273 9.46333 62.8386 9.28 63.6159 9.28C64.4079 9.28 65.1193 9.46333 65.7499 9.83C66.3953 10.1967 66.8793 10.7393 67.2019 11.458C67.4366 10.974 67.7519 10.5707 68.1479 10.248C68.5439 9.92533 68.9839 9.68333 69.4679 9.522C69.9519 9.36067 70.4433 9.28 70.9419 9.28C71.6606 9.28 72.3133 9.42667 72.8999 9.72C73.5013 10.0133 73.9779 10.4533 74.3299 11.04C74.6819 11.6267 74.8579 12.3747 74.8579 13.284V20.5H71.8439V13.878C71.8439 13.0713 71.6679 12.4993 71.3159 12.162C70.9639 11.8247 70.5093 11.656 69.9519 11.656C69.5119 11.656 69.1013 11.766 68.7199 11.986C68.3533 12.206 68.0599 12.536 67.8399 12.976C67.6346 13.4013 67.5319 13.9367 67.5319 14.582V20.5H64.5179V13.878C64.5179 13.0713 64.3346 12.4993 63.9679 12.162C63.6159 11.8247 63.1613 11.656 62.6039 11.656C62.2226 11.656 61.8413 11.7587 61.4599 11.964C61.0933 12.1693 60.7853 12.492 60.5359 12.932C60.3013 13.372 60.1839 13.9513 60.1839 14.67V20.5H57.1699ZM79.4848 7.916C78.8541 7.916 78.3848 7.784 78.0768 7.52C77.7688 7.24133 77.6148 6.838 77.6148 6.31C77.6148 5.76733 77.7688 5.364 78.0768 5.1C78.3848 4.82133 78.8541 4.682 79.4848 4.682C80.1155 4.682 80.5848 4.82133 80.8928 5.1C81.2008 5.364 81.3548 5.76733 81.3548 6.31C81.3548 6.838 81.2008 7.24133 80.8928 7.52C80.5848 7.784 80.1155 7.916 79.4848 7.916ZM80.9808 9.5V20.5H77.9668V9.5H80.9808ZM83.5378 20.5V18.564L88.4218 12.932L89.6758 11.678L87.8498 11.722H83.5818V9.5H93.0198V11.436L88.1578 17.046L86.9038 18.322L88.9058 18.278H93.1958V20.5H83.5378ZM95.935 20.5V5.98H102.293C104.053 5.98 105.351 6.32467 106.187 7.014C107.023 7.70333 107.441 8.67867 107.441 9.94C107.441 10.7173 107.206 11.4067 106.737 12.008C106.268 12.6093 105.578 12.9907 104.669 13.152V13.174C105.681 13.3207 106.458 13.702 107.001 14.318C107.544 14.934 107.815 15.6673 107.815 16.518C107.815 17.7647 107.36 18.74 106.451 19.444C105.556 20.148 104.244 20.5 102.513 20.5H95.935ZM98.883 18.212H102.249C103.07 18.212 103.679 18.0433 104.075 17.706C104.471 17.3687 104.669 16.8993 104.669 16.298C104.669 15.682 104.471 15.2127 104.075 14.89C103.679 14.5673 103.07 14.406 102.249 14.406H98.883V18.212ZM98.883 12.074H101.897C103.496 12.074 104.295 11.4507 104.295 10.204C104.295 8.95733 103.496 8.334 101.897 8.334H98.883V12.074ZM110.408 20.5V9.5H113.026L113.224 11.656C113.518 10.8933 113.943 10.3067 114.5 9.896C115.072 9.48533 115.784 9.28 116.634 9.28C116.884 9.28 117.111 9.302 117.316 9.346C117.522 9.39 117.69 9.44867 117.822 9.522L117.47 12.052C117.324 11.9933 117.14 11.9493 116.92 11.92C116.715 11.8907 116.444 11.876 116.106 11.876C115.666 11.876 115.241 11.986 114.83 12.206C114.42 12.4113 114.082 12.734 113.818 13.174C113.554 13.5993 113.422 14.142 113.422 14.802V20.5H110.408ZM125.766 13.482C125.766 12.8513 125.583 12.36 125.216 12.008C124.864 11.656 124.395 11.48 123.808 11.48C123.265 11.48 122.789 11.6193 122.378 11.898C121.967 12.1767 121.667 12.6387 121.476 13.284L118.902 12.492C119.151 11.524 119.694 10.7467 120.53 10.16C121.381 9.57333 122.517 9.28 123.94 9.28C124.908 9.28 125.751 9.434 126.47 9.742C127.189 10.0353 127.746 10.4827 128.142 11.084C128.553 11.6853 128.758 12.4407 128.758 13.35V17.816C128.758 18.3733 129.022 18.652 129.55 18.652C129.799 18.652 130.034 18.6153 130.254 18.542L130.078 20.412C129.697 20.6027 129.22 20.698 128.648 20.698C128.135 20.698 127.673 20.61 127.262 20.434C126.851 20.258 126.529 19.994 126.294 19.642C126.059 19.2753 125.942 18.8207 125.942 18.278V18.19L126.47 18.102C126.382 18.6593 126.14 19.136 125.744 19.532C125.348 19.9133 124.864 20.2067 124.292 20.412C123.735 20.6173 123.155 20.72 122.554 20.72C121.806 20.72 121.161 20.61 120.618 20.39C120.075 20.1553 119.657 19.818 119.364 19.378C119.071 18.938 118.924 18.3953 118.924 17.75C118.924 16.9287 119.188 16.2613 119.716 15.748C120.244 15.22 120.999 14.8607 121.982 14.67L126.118 13.834L126.096 15.704L123.456 16.232C122.957 16.3347 122.576 16.474 122.312 16.65C122.063 16.8113 121.938 17.0827 121.938 17.464C121.938 17.8307 122.07 18.1093 122.334 18.3C122.613 18.4907 122.943 18.586 123.324 18.586C123.632 18.586 123.933 18.5493 124.226 18.476C124.519 18.4027 124.783 18.2853 125.018 18.124C125.253 17.9627 125.436 17.7427 125.568 17.464C125.7 17.1853 125.766 16.848 125.766 16.452V13.482ZM133.647 7.916C133.016 7.916 132.547 7.784 132.239 7.52C131.931 7.24133 131.777 6.838 131.777 6.31C131.777 5.76733 131.931 5.364 132.239 5.1C132.547 4.82133 133.016 4.682 133.647 4.682C134.278 4.682 134.747 4.82133 135.055 5.1C135.363 5.364 135.517 5.76733 135.517 6.31C135.517 6.838 135.363 7.24133 135.055 7.52C134.747 7.784 134.278 7.916 133.647 7.916ZM135.143 9.5V20.5H132.129V9.5H135.143ZM138.338 20.5V9.5H141.044L141.22 12.8L140.846 12.448C141.022 11.7293 141.301 11.1353 141.682 10.666C142.063 10.1967 142.525 9.852 143.068 9.632C143.625 9.39733 144.234 9.28 144.894 9.28C145.657 9.28 146.331 9.42667 146.918 9.72C147.519 10.0133 147.989 10.4607 148.326 11.062C148.678 11.6487 148.854 12.3893 148.854 13.284V20.5H145.84V14.142C145.84 13.2033 145.657 12.558 145.29 12.206C144.923 11.8393 144.447 11.656 143.86 11.656C143.449 11.656 143.046 11.7587 142.65 11.964C142.269 12.1547 141.953 12.47 141.704 12.91C141.469 13.35 141.352 13.9367 141.352 14.67V20.5H138.338Z" fill="white"/>
<defs>
<clipPath id="clip0_183_707">
<rect width="24" height="24" fill="white" transform="translate(0 0.5)"/>
</clipPath>
</defs>
</svg>
